<mxfile host="app.diagrams.net" modified="2023-06-07T21:58:00.713Z" agent="Mozilla/5.0 (Windows NT 10.0; Win64; x64; rv:109.0) Gecko/20100101 Firefox/114.0" etag="k9miEwplVNQYvJhNott9" version="21.3.7" type="github">
  <diagram id="6a731a19-8d31-9384-78a2-239565b7b9f0" name="Page-1">
    <mxGraphModel dx="1195" dy="622" grid="1" gridSize="10" guides="1" tooltips="1" connect="1" arrows="1" fold="1" page="1" pageScale="1" pageWidth="1169" pageHeight="827" background="none" math="0" shadow="0">
      <root>
        <mxCell id="0" />
        <mxCell id="1" parent="0" />
        <mxCell id="QFHewqQeJ9qYBVuNZdQV-1807" style="edgeStyle=orthogonalEdgeStyle;rounded=0;orthogonalLoop=1;jettySize=auto;html=1;exitX=0.5;exitY=0;exitDx=0;exitDy=0;exitPerimeter=0;" edge="1" parent="1">
          <mxGeometry relative="1" as="geometry">
            <mxPoint x="885" y="680" as="targetPoint" />
            <mxPoint x="885" y="699.9999999999999" as="sourcePoint" />
          </mxGeometry>
        </mxCell>
        <mxCell id="QFHewqQeJ9qYBVuNZdQV-1804" style="edgeStyle=orthogonalEdgeStyle;rounded=0;orthogonalLoop=1;jettySize=auto;html=1;exitX=0.5;exitY=0;exitDx=0;exitDy=0;exitPerimeter=0;" edge="1" parent="1">
          <mxGeometry relative="1" as="geometry">
            <mxPoint x="976" y="680" as="targetPoint" />
            <mxPoint x="976" y="699.9999999999999" as="sourcePoint" />
          </mxGeometry>
        </mxCell>
        <mxCell id="QFHewqQeJ9qYBVuNZdQV-1806" style="edgeStyle=orthogonalEdgeStyle;rounded=0;orthogonalLoop=1;jettySize=auto;html=1;exitX=0.5;exitY=0;exitDx=0;exitDy=0;exitPerimeter=0;" edge="1" parent="1">
          <mxGeometry relative="1" as="geometry">
            <mxPoint x="1065" y="680" as="targetPoint" />
            <mxPoint x="1065" y="699.9999999999999" as="sourcePoint" />
          </mxGeometry>
        </mxCell>
        <mxCell id="QFHewqQeJ9qYBVuNZdQV-1799" value="" style="edgeStyle=orthogonalEdgeStyle;rounded=0;orthogonalLoop=1;jettySize=auto;html=1;" edge="1" parent="1" source="QFHewqQeJ9qYBVuNZdQV-1786" target="QFHewqQeJ9qYBVuNZdQV-1796">
          <mxGeometry relative="1" as="geometry" />
        </mxCell>
        <mxCell id="QFHewqQeJ9qYBVuNZdQV-1786" value="Master Node" style="sketch=0;html=1;dashed=0;whitespace=wrap;fillColor=#2875E2;strokeColor=#ffffff;points=[[0.005,0.63,0],[0.1,0.2,0],[0.9,0.2,0],[0.5,0,0],[0.995,0.63,0],[0.72,0.99,0],[0.5,1,0],[0.28,0.99,0]];verticalLabelPosition=bottom;align=center;verticalAlign=top;shape=mxgraph.kubernetes.icon;prIcon=master" vertex="1" parent="1">
          <mxGeometry x="1040" y="610" width="50" height="48" as="geometry" />
        </mxCell>
        <mxCell id="QFHewqQeJ9qYBVuNZdQV-1800" value="" style="edgeStyle=orthogonalEdgeStyle;rounded=0;orthogonalLoop=1;jettySize=auto;html=1;" edge="1" parent="1" source="QFHewqQeJ9qYBVuNZdQV-1787" target="QFHewqQeJ9qYBVuNZdQV-1796">
          <mxGeometry relative="1" as="geometry" />
        </mxCell>
        <mxCell id="QFHewqQeJ9qYBVuNZdQV-1787" value="Master Node" style="sketch=0;html=1;dashed=0;whitespace=wrap;fillColor=#2875E2;strokeColor=#ffffff;points=[[0.005,0.63,0],[0.1,0.2,0],[0.9,0.2,0],[0.5,0,0],[0.995,0.63,0],[0.72,0.99,0],[0.5,1,0],[0.28,0.99,0]];verticalLabelPosition=bottom;align=center;verticalAlign=top;shape=mxgraph.kubernetes.icon;prIcon=master" vertex="1" parent="1">
          <mxGeometry x="860" y="610" width="50" height="48" as="geometry" />
        </mxCell>
        <mxCell id="QFHewqQeJ9qYBVuNZdQV-1869" style="edgeStyle=orthogonalEdgeStyle;rounded=0;orthogonalLoop=1;jettySize=auto;html=1;exitX=0.5;exitY=0;exitDx=0;exitDy=0;exitPerimeter=0;" edge="1" parent="1" source="QFHewqQeJ9qYBVuNZdQV-1796">
          <mxGeometry relative="1" as="geometry">
            <mxPoint x="975" y="570" as="targetPoint" />
          </mxGeometry>
        </mxCell>
        <mxCell id="QFHewqQeJ9qYBVuNZdQV-1796" value="Worker Node" style="sketch=0;html=1;dashed=0;whitespace=wrap;fillColor=#2875E2;strokeColor=#ffffff;points=[[0.005,0.63,0],[0.1,0.2,0],[0.9,0.2,0],[0.5,0,0],[0.995,0.63,0],[0.72,0.99,0],[0.5,1,0],[0.28,0.99,0]];verticalLabelPosition=bottom;align=center;verticalAlign=top;shape=mxgraph.kubernetes.icon;prIcon=master" vertex="1" parent="1">
          <mxGeometry x="950" y="590" width="50" height="48" as="geometry" />
        </mxCell>
        <mxCell id="QFHewqQeJ9qYBVuNZdQV-1852" value="&lt;b&gt;External Services Namespace&lt;/b&gt;" style="whiteSpace=wrap;html=1;fillColor=#dae8fc;strokeColor=#DAE8FC;verticalAlign=top;" vertex="1" parent="1">
          <mxGeometry x="360" y="20" width="300" height="320" as="geometry" />
        </mxCell>
        <mxCell id="QFHewqQeJ9qYBVuNZdQV-1851" value="&lt;b&gt;Monitoring Namespace&lt;/b&gt;" style="whiteSpace=wrap;html=1;fillColor=#dae8fc;strokeColor=#DAE8FC;verticalAlign=top;" vertex="1" parent="1">
          <mxGeometry x="50" y="20" width="300" height="400" as="geometry" />
        </mxCell>
        <mxCell id="QFHewqQeJ9qYBVuNZdQV-1853" value="&lt;b&gt;Public-Websites Namespace&lt;/b&gt;" style="whiteSpace=wrap;html=1;fillColor=#dae8fc;strokeColor=#DAE8FC;verticalAlign=top;" vertex="1" parent="1">
          <mxGeometry x="670" y="20" width="300" height="320" as="geometry" />
        </mxCell>
        <mxCell id="QFHewqQeJ9qYBVuNZdQV-1854" value="&lt;b&gt;SaaS-Products Namespace&lt;/b&gt;" style="whiteSpace=wrap;html=1;fillColor=#dae8fc;strokeColor=#DAE8FC;verticalAlign=top;" vertex="1" parent="1">
          <mxGeometry x="980" y="20" width="300" height="320" as="geometry" />
        </mxCell>
        <mxCell id="QFHewqQeJ9qYBVuNZdQV-1855" value="&lt;b&gt;Internal-Services Namespace&lt;/b&gt;" style="whiteSpace=wrap;html=1;fillColor=#dae8fc;strokeColor=#DAE8FC;verticalAlign=top;" vertex="1" parent="1">
          <mxGeometry x="1290" y="20" width="400" height="320" as="geometry" />
        </mxCell>
        <mxCell id="QFHewqQeJ9qYBVuNZdQV-1856" value="&lt;b&gt;Bots Namespace&lt;/b&gt;" style="whiteSpace=wrap;html=1;fillColor=#dae8fc;strokeColor=#DAE8FC;verticalAlign=top;" vertex="1" parent="1">
          <mxGeometry x="1700" y="20" width="150" height="320" as="geometry" />
        </mxCell>
        <mxCell id="QFHewqQeJ9qYBVuNZdQV-1891" style="edgeStyle=orthogonalEdgeStyle;rounded=0;orthogonalLoop=1;jettySize=auto;html=1;" edge="1" parent="1" source="QFHewqQeJ9qYBVuNZdQV-1857" target="QFHewqQeJ9qYBVuNZdQV-1854">
          <mxGeometry relative="1" as="geometry" />
        </mxCell>
        <mxCell id="QFHewqQeJ9qYBVuNZdQV-1892" style="edgeStyle=orthogonalEdgeStyle;rounded=0;orthogonalLoop=1;jettySize=auto;html=1;" edge="1" parent="1" source="QFHewqQeJ9qYBVuNZdQV-1857" target="QFHewqQeJ9qYBVuNZdQV-1853">
          <mxGeometry relative="1" as="geometry" />
        </mxCell>
        <mxCell id="QFHewqQeJ9qYBVuNZdQV-1905" style="edgeStyle=orthogonalEdgeStyle;rounded=0;orthogonalLoop=1;jettySize=auto;html=1;" edge="1" parent="1" source="QFHewqQeJ9qYBVuNZdQV-1857" target="QFHewqQeJ9qYBVuNZdQV-1852">
          <mxGeometry relative="1" as="geometry" />
        </mxCell>
        <mxCell id="QFHewqQeJ9qYBVuNZdQV-1906" style="edgeStyle=orthogonalEdgeStyle;rounded=0;orthogonalLoop=1;jettySize=auto;html=1;" edge="1" parent="1" source="QFHewqQeJ9qYBVuNZdQV-1857" target="QFHewqQeJ9qYBVuNZdQV-1851">
          <mxGeometry relative="1" as="geometry" />
        </mxCell>
        <mxCell id="QFHewqQeJ9qYBVuNZdQV-1857" value="&lt;div&gt;Ingress&lt;/div&gt;" style="sketch=0;html=1;dashed=0;whitespace=wrap;fillColor=#2875E2;strokeColor=#ffffff;points=[[0.005,0.63,0],[0.1,0.2,0],[0.9,0.2,0],[0.5,0,0],[0.995,0.63,0],[0.72,0.99,0],[0.5,1,0],[0.28,0.99,0]];verticalLabelPosition=bottom;align=center;verticalAlign=top;shape=mxgraph.kubernetes.icon;prIcon=ing" vertex="1" parent="1">
          <mxGeometry x="950" y="500" width="50" height="48" as="geometry" />
        </mxCell>
        <mxCell id="QFHewqQeJ9qYBVuNZdQV-1859" value="fsn1-wn1" style="sketch=0;html=1;dashed=0;whitespace=wrap;fillColor=#2875E2;strokeColor=#ffffff;points=[[0.005,0.63,0],[0.1,0.2,0],[0.9,0.2,0],[0.5,0,0],[0.995,0.63,0],[0.72,0.99,0],[0.5,1,0],[0.28,0.99,0]];verticalLabelPosition=bottom;align=center;verticalAlign=top;shape=mxgraph.kubernetes.icon;prIcon=node" vertex="1" parent="1">
          <mxGeometry x="950" y="700" width="50" height="48" as="geometry" />
        </mxCell>
        <mxCell id="QFHewqQeJ9qYBVuNZdQV-1860" value="nbg1-mn2" style="sketch=0;html=1;dashed=0;whitespace=wrap;fillColor=#2875E2;strokeColor=#ffffff;points=[[0.005,0.63,0],[0.1,0.2,0],[0.9,0.2,0],[0.5,0,0],[0.995,0.63,0],[0.72,0.99,0],[0.5,1,0],[0.28,0.99,0]];verticalLabelPosition=bottom;align=center;verticalAlign=top;shape=mxgraph.kubernetes.icon;prIcon=node" vertex="1" parent="1">
          <mxGeometry x="1040" y="700" width="50" height="48" as="geometry" />
        </mxCell>
        <mxCell id="QFHewqQeJ9qYBVuNZdQV-1861" value="fsn1-mn1" style="sketch=0;html=1;dashed=0;whitespace=wrap;fillColor=#2875E2;strokeColor=#ffffff;points=[[0.005,0.63,0],[0.1,0.2,0],[0.9,0.2,0],[0.5,0,0],[0.995,0.63,0],[0.72,0.99,0],[0.5,1,0],[0.28,0.99,0]];verticalLabelPosition=bottom;align=center;verticalAlign=top;shape=mxgraph.kubernetes.icon;prIcon=node" vertex="1" parent="1">
          <mxGeometry x="860" y="700" width="50" height="48" as="geometry" />
        </mxCell>
        <mxCell id="QFHewqQeJ9qYBVuNZdQV-1863" value="Grafana (SVC)" style="sketch=0;html=1;dashed=0;whitespace=wrap;fillColor=#2875E2;strokeColor=#ffffff;points=[[0.005,0.63,0],[0.1,0.2,0],[0.9,0.2,0],[0.5,0,0],[0.995,0.63,0],[0.72,0.99,0],[0.5,1,0],[0.28,0.99,0]];verticalLabelPosition=bottom;align=center;verticalAlign=top;shape=mxgraph.kubernetes.icon;prIcon=svc" vertex="1" parent="1">
          <mxGeometry x="235" y="340" width="40" height="38" as="geometry" />
        </mxCell>
        <mxCell id="QFHewqQeJ9qYBVuNZdQV-1864" value="&lt;div&gt;Zabbix (Pod)&lt;br&gt;&lt;/div&gt;" style="sketch=0;html=1;dashed=0;whitespace=wrap;fillColor=#2875E2;strokeColor=#ffffff;points=[[0.005,0.63,0],[0.1,0.2,0],[0.9,0.2,0],[0.5,0,0],[0.995,0.63,0],[0.72,0.99,0],[0.5,1,0],[0.28,0.99,0]];verticalLabelPosition=bottom;align=center;verticalAlign=top;shape=mxgraph.kubernetes.icon;prIcon=pod" vertex="1" parent="1">
          <mxGeometry x="120" y="50" width="40" height="40" as="geometry" />
        </mxCell>
        <mxCell id="QFHewqQeJ9qYBVuNZdQV-1866" value="Grafana (Pod)" style="sketch=0;html=1;dashed=0;whitespace=wrap;fillColor=#2875E2;strokeColor=#ffffff;points=[[0.005,0.63,0],[0.1,0.2,0],[0.9,0.2,0],[0.5,0,0],[0.995,0.63,0],[0.72,0.99,0],[0.5,1,0],[0.28,0.99,0]];verticalLabelPosition=bottom;align=center;verticalAlign=top;shape=mxgraph.kubernetes.icon;prIcon=pod" vertex="1" parent="1">
          <mxGeometry x="240" y="50" width="40" height="40" as="geometry" />
        </mxCell>
        <mxCell id="QFHewqQeJ9qYBVuNZdQV-1867" value="&lt;div&gt;Zabbix (STS)&lt;/div&gt;" style="sketch=0;html=1;dashed=0;whitespace=wrap;fillColor=#2875E2;strokeColor=#ffffff;points=[[0.005,0.63,0],[0.1,0.2,0],[0.9,0.2,0],[0.5,0,0],[0.995,0.63,0],[0.72,0.99,0],[0.5,1,0],[0.28,0.99,0]];verticalLabelPosition=bottom;align=center;verticalAlign=top;shape=mxgraph.kubernetes.icon;prIcon=sts" vertex="1" parent="1">
          <mxGeometry x="115" y="140" width="40" height="38" as="geometry" />
        </mxCell>
        <mxCell id="QFHewqQeJ9qYBVuNZdQV-1868" value="&lt;div&gt;Grafana (STS)&lt;br&gt;&lt;/div&gt;" style="sketch=0;html=1;dashed=0;whitespace=wrap;fillColor=#2875E2;strokeColor=#ffffff;points=[[0.005,0.63,0],[0.1,0.2,0],[0.9,0.2,0],[0.5,0,0],[0.995,0.63,0],[0.72,0.99,0],[0.5,1,0],[0.28,0.99,0]];verticalLabelPosition=bottom;align=center;verticalAlign=top;shape=mxgraph.kubernetes.icon;prIcon=sts" vertex="1" parent="1">
          <mxGeometry x="235" y="140" width="40" height="38" as="geometry" />
        </mxCell>
        <mxCell id="QFHewqQeJ9qYBVuNZdQV-1870" value="&lt;div&gt;Zabbix (PVC)&lt;br&gt;&lt;/div&gt;" style="sketch=0;html=1;dashed=0;whitespace=wrap;fillColor=#2875E2;strokeColor=#ffffff;points=[[0.005,0.63,0],[0.1,0.2,0],[0.9,0.2,0],[0.5,0,0],[0.995,0.63,0],[0.72,0.99,0],[0.5,1,0],[0.28,0.99,0]];verticalLabelPosition=bottom;align=center;verticalAlign=top;shape=mxgraph.kubernetes.icon;prIcon=pvc" vertex="1" parent="1">
          <mxGeometry x="115" y="240" width="40" height="38" as="geometry" />
        </mxCell>
        <mxCell id="QFHewqQeJ9qYBVuNZdQV-1871" value="&lt;div&gt;Grafana (PVC)&lt;br&gt;&lt;/div&gt;" style="sketch=0;html=1;dashed=0;whitespace=wrap;fillColor=#2875E2;strokeColor=#ffffff;points=[[0.005,0.63,0],[0.1,0.2,0],[0.9,0.2,0],[0.5,0,0],[0.995,0.63,0],[0.72,0.99,0],[0.5,1,0],[0.28,0.99,0]];verticalLabelPosition=bottom;align=center;verticalAlign=top;shape=mxgraph.kubernetes.icon;prIcon=pvc" vertex="1" parent="1">
          <mxGeometry x="235" y="240" width="40" height="38" as="geometry" />
        </mxCell>
        <mxCell id="QFHewqQeJ9qYBVuNZdQV-1873" value="Zabbix (SVC)" style="sketch=0;html=1;dashed=0;whitespace=wrap;fillColor=#2875E2;strokeColor=#ffffff;points=[[0.005,0.63,0],[0.1,0.2,0],[0.9,0.2,0],[0.5,0,0],[0.995,0.63,0],[0.72,0.99,0],[0.5,1,0],[0.28,0.99,0]];verticalLabelPosition=bottom;align=center;verticalAlign=top;shape=mxgraph.kubernetes.icon;prIcon=svc" vertex="1" parent="1">
          <mxGeometry x="115" y="340" width="40" height="38" as="geometry" />
        </mxCell>
        <mxCell id="QFHewqQeJ9qYBVuNZdQV-1877" value="&lt;div&gt;docs&lt;/div&gt;&lt;div&gt;(SVC)&lt;/div&gt;" style="sketch=0;html=1;dashed=0;whitespace=wrap;fillColor=#2875E2;strokeColor=#ffffff;points=[[0.005,0.63,0],[0.1,0.2,0],[0.9,0.2,0],[0.5,0,0],[0.995,0.63,0],[0.72,0.99,0],[0.5,1,0],[0.28,0.99,0]];verticalLabelPosition=bottom;align=center;verticalAlign=top;shape=mxgraph.kubernetes.icon;prIcon=svc" vertex="1" parent="1">
          <mxGeometry x="859" y="240" width="40" height="38" as="geometry" />
        </mxCell>
        <mxCell id="QFHewqQeJ9qYBVuNZdQV-1878" value="&lt;div&gt;public-website&lt;/div&gt;&lt;div&gt;(Pod)&lt;br&gt;&lt;/div&gt;" style="sketch=0;html=1;dashed=0;whitespace=wrap;fillColor=#2875E2;strokeColor=#ffffff;points=[[0.005,0.63,0],[0.1,0.2,0],[0.9,0.2,0],[0.5,0,0],[0.995,0.63,0],[0.72,0.99,0],[0.5,1,0],[0.28,0.99,0]];verticalLabelPosition=bottom;align=center;verticalAlign=top;shape=mxgraph.kubernetes.icon;prIcon=pod" vertex="1" parent="1">
          <mxGeometry x="738" y="50" width="40" height="40" as="geometry" />
        </mxCell>
        <mxCell id="QFHewqQeJ9qYBVuNZdQV-1879" value="&lt;div&gt;docs&lt;/div&gt;&lt;div&gt;(Pod)&lt;/div&gt;" style="sketch=0;html=1;dashed=0;whitespace=wrap;fillColor=#2875E2;strokeColor=#ffffff;points=[[0.005,0.63,0],[0.1,0.2,0],[0.9,0.2,0],[0.5,0,0],[0.995,0.63,0],[0.72,0.99,0],[0.5,1,0],[0.28,0.99,0]];verticalLabelPosition=bottom;align=center;verticalAlign=top;shape=mxgraph.kubernetes.icon;prIcon=pod" vertex="1" parent="1">
          <mxGeometry x="864" y="50" width="40" height="40" as="geometry" />
        </mxCell>
        <mxCell id="QFHewqQeJ9qYBVuNZdQV-1884" value="&lt;div&gt;public-website&lt;/div&gt;&lt;div&gt;(SVC)&lt;/div&gt;" style="sketch=0;html=1;dashed=0;whitespace=wrap;fillColor=#2875E2;strokeColor=#ffffff;points=[[0.005,0.63,0],[0.1,0.2,0],[0.9,0.2,0],[0.5,0,0],[0.995,0.63,0],[0.72,0.99,0],[0.5,1,0],[0.28,0.99,0]];verticalLabelPosition=bottom;align=center;verticalAlign=top;shape=mxgraph.kubernetes.icon;prIcon=svc" vertex="1" parent="1">
          <mxGeometry x="733" y="240" width="40" height="38" as="geometry" />
        </mxCell>
        <mxCell id="QFHewqQeJ9qYBVuNZdQV-1885" value="&lt;div&gt;employee-dashboard&lt;/div&gt;&lt;div&gt;(SVC)&lt;/div&gt;" style="sketch=0;html=1;dashed=0;whitespace=wrap;fillColor=#2875E2;strokeColor=#ffffff;points=[[0.005,0.63,0],[0.1,0.2,0],[0.9,0.2,0],[0.5,0,0],[0.995,0.63,0],[0.72,0.99,0],[0.5,1,0],[0.28,0.99,0]];verticalLabelPosition=bottom;align=center;verticalAlign=top;shape=mxgraph.kubernetes.icon;prIcon=svc" vertex="1" parent="1">
          <mxGeometry x="1169" y="240" width="40" height="38" as="geometry" />
        </mxCell>
        <mxCell id="QFHewqQeJ9qYBVuNZdQV-1886" value="&lt;div&gt;company-dashboard&lt;/div&gt;&lt;div&gt;(Pod)&lt;br&gt;&lt;/div&gt;" style="sketch=0;html=1;dashed=0;whitespace=wrap;fillColor=#2875E2;strokeColor=#ffffff;points=[[0.005,0.63,0],[0.1,0.2,0],[0.9,0.2,0],[0.5,0,0],[0.995,0.63,0],[0.72,0.99,0],[0.5,1,0],[0.28,0.99,0]];verticalLabelPosition=bottom;align=center;verticalAlign=top;shape=mxgraph.kubernetes.icon;prIcon=pod" vertex="1" parent="1">
          <mxGeometry x="1046" y="50" width="40" height="40" as="geometry" />
        </mxCell>
        <mxCell id="QFHewqQeJ9qYBVuNZdQV-1887" value="&lt;div&gt;employee-dashboard&lt;/div&gt;&lt;div&gt;(Pod)&lt;/div&gt;" style="sketch=0;html=1;dashed=0;whitespace=wrap;fillColor=#2875E2;strokeColor=#ffffff;points=[[0.005,0.63,0],[0.1,0.2,0],[0.9,0.2,0],[0.5,0,0],[0.995,0.63,0],[0.72,0.99,0],[0.5,1,0],[0.28,0.99,0]];verticalLabelPosition=bottom;align=center;verticalAlign=top;shape=mxgraph.kubernetes.icon;prIcon=pod" vertex="1" parent="1">
          <mxGeometry x="1174" y="50" width="40" height="40" as="geometry" />
        </mxCell>
        <mxCell id="QFHewqQeJ9qYBVuNZdQV-1890" value="&lt;div&gt;company-dashboard&lt;/div&gt;&lt;div&gt;(SVC)&lt;/div&gt;" style="sketch=0;html=1;dashed=0;whitespace=wrap;fillColor=#2875E2;strokeColor=#ffffff;points=[[0.005,0.63,0],[0.1,0.2,0],[0.9,0.2,0],[0.5,0,0],[0.995,0.63,0],[0.72,0.99,0],[0.5,1,0],[0.28,0.99,0]];verticalLabelPosition=bottom;align=center;verticalAlign=top;shape=mxgraph.kubernetes.icon;prIcon=svc" vertex="1" parent="1">
          <mxGeometry x="1041" y="240" width="40" height="38" as="geometry" />
        </mxCell>
        <mxCell id="QFHewqQeJ9qYBVuNZdQV-1894" value="&lt;div&gt;employee-dashboard&lt;/div&gt;&lt;div&gt;(Deploy)&lt;br&gt;&lt;/div&gt;" style="sketch=0;html=1;dashed=0;whitespace=wrap;fillColor=#2875E2;strokeColor=#ffffff;points=[[0.005,0.63,0],[0.1,0.2,0],[0.9,0.2,0],[0.5,0,0],[0.995,0.63,0],[0.72,0.99,0],[0.5,1,0],[0.28,0.99,0]];verticalLabelPosition=bottom;align=center;verticalAlign=top;shape=mxgraph.kubernetes.icon;prIcon=deploy" vertex="1" parent="1">
          <mxGeometry x="1169" y="140" width="40" height="38" as="geometry" />
        </mxCell>
        <mxCell id="QFHewqQeJ9qYBVuNZdQV-1896" value="&lt;div&gt;company-dashboard&lt;/div&gt;&lt;div&gt;(Deploy)&lt;br&gt;&lt;/div&gt;" style="sketch=0;html=1;dashed=0;whitespace=wrap;fillColor=#2875E2;strokeColor=#ffffff;points=[[0.005,0.63,0],[0.1,0.2,0],[0.9,0.2,0],[0.5,0,0],[0.995,0.63,0],[0.72,0.99,0],[0.5,1,0],[0.28,0.99,0]];verticalLabelPosition=bottom;align=center;verticalAlign=top;shape=mxgraph.kubernetes.icon;prIcon=deploy" vertex="1" parent="1">
          <mxGeometry x="1041" y="140" width="40" height="38" as="geometry" />
        </mxCell>
        <mxCell id="QFHewqQeJ9qYBVuNZdQV-1897" value="&lt;div&gt;docs&lt;/div&gt;&lt;div&gt;(Deploy)&lt;br&gt;&lt;/div&gt;" style="sketch=0;html=1;dashed=0;whitespace=wrap;fillColor=#2875E2;strokeColor=#ffffff;points=[[0.005,0.63,0],[0.1,0.2,0],[0.9,0.2,0],[0.5,0,0],[0.995,0.63,0],[0.72,0.99,0],[0.5,1,0],[0.28,0.99,0]];verticalLabelPosition=bottom;align=center;verticalAlign=top;shape=mxgraph.kubernetes.icon;prIcon=deploy" vertex="1" parent="1">
          <mxGeometry x="859" y="140" width="40" height="38" as="geometry" />
        </mxCell>
        <mxCell id="QFHewqQeJ9qYBVuNZdQV-1898" value="&lt;div&gt;public-website&lt;/div&gt;&lt;div&gt;(Deploy)&lt;br&gt;&lt;/div&gt;" style="sketch=0;html=1;dashed=0;whitespace=wrap;fillColor=#2875E2;strokeColor=#ffffff;points=[[0.005,0.63,0],[0.1,0.2,0],[0.9,0.2,0],[0.5,0,0],[0.995,0.63,0],[0.72,0.99,0],[0.5,1,0],[0.28,0.99,0]];verticalLabelPosition=bottom;align=center;verticalAlign=top;shape=mxgraph.kubernetes.icon;prIcon=deploy" vertex="1" parent="1">
          <mxGeometry x="733" y="140" width="40" height="38" as="geometry" />
        </mxCell>
        <mxCell id="QFHewqQeJ9qYBVuNZdQV-1899" value="AuthService (SVC)" style="sketch=0;html=1;dashed=0;whitespace=wrap;fillColor=#2875E2;strokeColor=#ffffff;points=[[0.005,0.63,0],[0.1,0.2,0],[0.9,0.2,0],[0.5,0,0],[0.995,0.63,0],[0.72,0.99,0],[0.5,1,0],[0.28,0.99,0]];verticalLabelPosition=bottom;align=center;verticalAlign=top;shape=mxgraph.kubernetes.icon;prIcon=svc" vertex="1" parent="1">
          <mxGeometry x="547" y="240" width="40" height="38" as="geometry" />
        </mxCell>
        <mxCell id="QFHewqQeJ9qYBVuNZdQV-1900" value="&lt;div&gt;DashAPI (Pod)&lt;br&gt;&lt;/div&gt;" style="sketch=0;html=1;dashed=0;whitespace=wrap;fillColor=#2875E2;strokeColor=#ffffff;points=[[0.005,0.63,0],[0.1,0.2,0],[0.9,0.2,0],[0.5,0,0],[0.995,0.63,0],[0.72,0.99,0],[0.5,1,0],[0.28,0.99,0]];verticalLabelPosition=bottom;align=center;verticalAlign=top;shape=mxgraph.kubernetes.icon;prIcon=pod" vertex="1" parent="1">
          <mxGeometry x="428" y="50" width="40" height="40" as="geometry" />
        </mxCell>
        <mxCell id="QFHewqQeJ9qYBVuNZdQV-1901" value="AuthService (Pod)" style="sketch=0;html=1;dashed=0;whitespace=wrap;fillColor=#2875E2;strokeColor=#ffffff;points=[[0.005,0.63,0],[0.1,0.2,0],[0.9,0.2,0],[0.5,0,0],[0.995,0.63,0],[0.72,0.99,0],[0.5,1,0],[0.28,0.99,0]];verticalLabelPosition=bottom;align=center;verticalAlign=top;shape=mxgraph.kubernetes.icon;prIcon=pod" vertex="1" parent="1">
          <mxGeometry x="552" y="50" width="40" height="40" as="geometry" />
        </mxCell>
        <mxCell id="QFHewqQeJ9qYBVuNZdQV-1902" value="DashAPI (SVC)" style="sketch=0;html=1;dashed=0;whitespace=wrap;fillColor=#2875E2;strokeColor=#ffffff;points=[[0.005,0.63,0],[0.1,0.2,0],[0.9,0.2,0],[0.5,0,0],[0.995,0.63,0],[0.72,0.99,0],[0.5,1,0],[0.28,0.99,0]];verticalLabelPosition=bottom;align=center;verticalAlign=top;shape=mxgraph.kubernetes.icon;prIcon=svc" vertex="1" parent="1">
          <mxGeometry x="423" y="240" width="40" height="38" as="geometry" />
        </mxCell>
        <mxCell id="QFHewqQeJ9qYBVuNZdQV-1903" value="&lt;div&gt;AuthService (Deploy)&lt;br&gt;&lt;/div&gt;" style="sketch=0;html=1;dashed=0;whitespace=wrap;fillColor=#2875E2;strokeColor=#ffffff;points=[[0.005,0.63,0],[0.1,0.2,0],[0.9,0.2,0],[0.5,0,0],[0.995,0.63,0],[0.72,0.99,0],[0.5,1,0],[0.28,0.99,0]];verticalLabelPosition=bottom;align=center;verticalAlign=top;shape=mxgraph.kubernetes.icon;prIcon=deploy" vertex="1" parent="1">
          <mxGeometry x="547" y="140" width="40" height="38" as="geometry" />
        </mxCell>
        <mxCell id="QFHewqQeJ9qYBVuNZdQV-1904" value="&lt;div&gt;DashAPI (Deploy)&lt;br&gt;&lt;/div&gt;" style="sketch=0;html=1;dashed=0;whitespace=wrap;fillColor=#2875E2;strokeColor=#ffffff;points=[[0.005,0.63,0],[0.1,0.2,0],[0.9,0.2,0],[0.5,0,0],[0.995,0.63,0],[0.72,0.99,0],[0.5,1,0],[0.28,0.99,0]];verticalLabelPosition=bottom;align=center;verticalAlign=top;shape=mxgraph.kubernetes.icon;prIcon=deploy" vertex="1" parent="1">
          <mxGeometry x="423" y="140" width="40" height="38" as="geometry" />
        </mxCell>
        <mxCell id="QFHewqQeJ9qYBVuNZdQV-1907" value="&lt;div&gt;data-nexus&lt;/div&gt;&lt;div&gt;(SVC)&lt;/div&gt;" style="sketch=0;html=1;dashed=0;whitespace=wrap;fillColor=#2875E2;strokeColor=#ffffff;points=[[0.005,0.63,0],[0.1,0.2,0],[0.9,0.2,0],[0.5,0,0],[0.995,0.63,0],[0.72,0.99,0],[0.5,1,0],[0.28,0.99,0]];verticalLabelPosition=bottom;align=center;verticalAlign=top;shape=mxgraph.kubernetes.icon;prIcon=svc" vertex="1" parent="1">
          <mxGeometry x="1470" y="240" width="40" height="38" as="geometry" />
        </mxCell>
        <mxCell id="QFHewqQeJ9qYBVuNZdQV-1908" value="&lt;div&gt;translation-service&lt;/div&gt;&lt;div&gt;(Pod)&lt;br&gt;&lt;/div&gt;" style="sketch=0;html=1;dashed=0;whitespace=wrap;fillColor=#2875E2;strokeColor=#ffffff;points=[[0.005,0.63,0],[0.1,0.2,0],[0.9,0.2,0],[0.5,0,0],[0.995,0.63,0],[0.72,0.99,0],[0.5,1,0],[0.28,0.99,0]];verticalLabelPosition=bottom;align=center;verticalAlign=top;shape=mxgraph.kubernetes.icon;prIcon=pod" vertex="1" parent="1">
          <mxGeometry x="1355" y="50" width="40" height="40" as="geometry" />
        </mxCell>
        <mxCell id="QFHewqQeJ9qYBVuNZdQV-1909" value="&lt;div&gt;data-nexus&lt;/div&gt;&lt;div&gt;(Pod)&lt;/div&gt;" style="sketch=0;html=1;dashed=0;whitespace=wrap;fillColor=#2875E2;strokeColor=#ffffff;points=[[0.005,0.63,0],[0.1,0.2,0],[0.9,0.2,0],[0.5,0,0],[0.995,0.63,0],[0.72,0.99,0],[0.5,1,0],[0.28,0.99,0]];verticalLabelPosition=bottom;align=center;verticalAlign=top;shape=mxgraph.kubernetes.icon;prIcon=pod" vertex="1" parent="1">
          <mxGeometry x="1475" y="50" width="40" height="40" as="geometry" />
        </mxCell>
        <mxCell id="QFHewqQeJ9qYBVuNZdQV-1910" value="&lt;div&gt;translation-service&lt;/div&gt;&lt;div&gt;(SVC)&lt;/div&gt;" style="sketch=0;html=1;dashed=0;whitespace=wrap;fillColor=#2875E2;strokeColor=#ffffff;points=[[0.005,0.63,0],[0.1,0.2,0],[0.9,0.2,0],[0.5,0,0],[0.995,0.63,0],[0.72,0.99,0],[0.5,1,0],[0.28,0.99,0]];verticalLabelPosition=bottom;align=center;verticalAlign=top;shape=mxgraph.kubernetes.icon;prIcon=svc" vertex="1" parent="1">
          <mxGeometry x="1350" y="240" width="40" height="38" as="geometry" />
        </mxCell>
        <mxCell id="QFHewqQeJ9qYBVuNZdQV-1911" value="&lt;div&gt;data-nexus&lt;br&gt;&lt;/div&gt;&lt;div&gt;(Deploy)&lt;br&gt;&lt;/div&gt;" style="sketch=0;html=1;dashed=0;whitespace=wrap;fillColor=#2875E2;strokeColor=#ffffff;points=[[0.005,0.63,0],[0.1,0.2,0],[0.9,0.2,0],[0.5,0,0],[0.995,0.63,0],[0.72,0.99,0],[0.5,1,0],[0.28,0.99,0]];verticalLabelPosition=bottom;align=center;verticalAlign=top;shape=mxgraph.kubernetes.icon;prIcon=deploy" vertex="1" parent="1">
          <mxGeometry x="1470" y="140" width="40" height="38" as="geometry" />
        </mxCell>
        <mxCell id="QFHewqQeJ9qYBVuNZdQV-1912" value="&lt;div&gt;translation-service&lt;/div&gt;&lt;div&gt;(Deploy)&lt;br&gt;&lt;/div&gt;" style="sketch=0;html=1;dashed=0;whitespace=wrap;fillColor=#2875E2;strokeColor=#ffffff;points=[[0.005,0.63,0],[0.1,0.2,0],[0.9,0.2,0],[0.5,0,0],[0.995,0.63,0],[0.72,0.99,0],[0.5,1,0],[0.28,0.99,0]];verticalLabelPosition=bottom;align=center;verticalAlign=top;shape=mxgraph.kubernetes.icon;prIcon=deploy" vertex="1" parent="1">
          <mxGeometry x="1350" y="140" width="40" height="38" as="geometry" />
        </mxCell>
        <mxCell id="QFHewqQeJ9qYBVuNZdQV-1913" value="&lt;div&gt;discord-bot&lt;/div&gt;&lt;div&gt;(SVC)&lt;/div&gt;" style="sketch=0;html=1;dashed=0;whitespace=wrap;fillColor=#2875E2;strokeColor=#ffffff;points=[[0.005,0.63,0],[0.1,0.2,0],[0.9,0.2,0],[0.5,0,0],[0.995,0.63,0],[0.72,0.99,0],[0.5,1,0],[0.28,0.99,0]];verticalLabelPosition=bottom;align=center;verticalAlign=top;shape=mxgraph.kubernetes.icon;prIcon=svc" vertex="1" parent="1">
          <mxGeometry x="1761.5" y="246" width="40" height="38" as="geometry" />
        </mxCell>
        <mxCell id="QFHewqQeJ9qYBVuNZdQV-1914" value="&lt;div&gt;discord-bot&lt;/div&gt;&lt;div&gt;(Pod)&lt;/div&gt;" style="sketch=0;html=1;dashed=0;whitespace=wrap;fillColor=#2875E2;strokeColor=#ffffff;points=[[0.005,0.63,0],[0.1,0.2,0],[0.9,0.2,0],[0.5,0,0],[0.995,0.63,0],[0.72,0.99,0],[0.5,1,0],[0.28,0.99,0]];verticalLabelPosition=bottom;align=center;verticalAlign=top;shape=mxgraph.kubernetes.icon;prIcon=pod" vertex="1" parent="1">
          <mxGeometry x="1761.5" y="50" width="40" height="40" as="geometry" />
        </mxCell>
        <mxCell id="QFHewqQeJ9qYBVuNZdQV-1915" value="&lt;div&gt;discord-bot&lt;/div&gt;&lt;div&gt;(Deploy)&lt;br&gt;&lt;/div&gt;" style="sketch=0;html=1;dashed=0;whitespace=wrap;fillColor=#2875E2;strokeColor=#ffffff;points=[[0.005,0.63,0],[0.1,0.2,0],[0.9,0.2,0],[0.5,0,0],[0.995,0.63,0],[0.72,0.99,0],[0.5,1,0],[0.28,0.99,0]];verticalLabelPosition=bottom;align=center;verticalAlign=top;shape=mxgraph.kubernetes.icon;prIcon=deploy" vertex="1" parent="1">
          <mxGeometry x="1761.5" y="146" width="40" height="38" as="geometry" />
        </mxCell>
        <mxCell id="QFHewqQeJ9qYBVuNZdQV-1917" value="DataNexus (SVC)" style="sketch=0;html=1;dashed=0;whitespace=wrap;fillColor=#2875E2;strokeColor=#ffffff;points=[[0.005,0.63,0],[0.1,0.2,0],[0.9,0.2,0],[0.5,0,0],[0.995,0.63,0],[0.72,0.99,0],[0.5,1,0],[0.28,0.99,0]];verticalLabelPosition=bottom;align=center;verticalAlign=top;shape=mxgraph.kubernetes.icon;prIcon=svc" vertex="1" parent="1">
          <mxGeometry x="1590" y="240" width="40" height="38" as="geometry" />
        </mxCell>
        <mxCell id="QFHewqQeJ9qYBVuNZdQV-1918" value="&lt;div&gt;DataNexus&lt;/div&gt;&lt;div&gt;(Pod)&lt;/div&gt;" style="sketch=0;html=1;dashed=0;whitespace=wrap;fillColor=#2875E2;strokeColor=#ffffff;points=[[0.005,0.63,0],[0.1,0.2,0],[0.9,0.2,0],[0.5,0,0],[0.995,0.63,0],[0.72,0.99,0],[0.5,1,0],[0.28,0.99,0]];verticalLabelPosition=bottom;align=center;verticalAlign=top;shape=mxgraph.kubernetes.icon;prIcon=pod" vertex="1" parent="1">
          <mxGeometry x="1595" y="50" width="40" height="40" as="geometry" />
        </mxCell>
        <mxCell id="QFHewqQeJ9qYBVuNZdQV-1919" value="&lt;div&gt;DataNexus&lt;/div&gt;&lt;div&gt;(Deploy)&lt;br&gt;&lt;/div&gt;" style="sketch=0;html=1;dashed=0;whitespace=wrap;fillColor=#2875E2;strokeColor=#ffffff;points=[[0.005,0.63,0],[0.1,0.2,0],[0.9,0.2,0],[0.5,0,0],[0.995,0.63,0],[0.72,0.99,0],[0.5,1,0],[0.28,0.99,0]];verticalLabelPosition=bottom;align=center;verticalAlign=top;shape=mxgraph.kubernetes.icon;prIcon=deploy" vertex="1" parent="1">
          <mxGeometry x="1590" y="140" width="40" height="38" as="geometry" />
        </mxCell>
      </root>
    </mxGraphModel>
  </diagram>
</mxfile>
